<svg width="306" height="331" viewBox="0 0 306 331" fill="none" xmlns="http://www.w3.org/2000/svg">
<path d="M10.1221 305.304C10.1221 305.304 38.1141 317.596 90.0096 329.339C91.5822 314.891 97.7566 275.373 119.318 288.276C119.318 288.276 126.912 268.752 125.733 255.927C124.571 243.29 113.836 225.688 113.836 225.688C105.079 217.079 98.2222 206.139 94.2324 193.493L82.8736 140.18C112.22 138.542 99.1164 165.568 110.582 174.713C111.825 171.127 130.783 126.94 97.666 100.253C161.5 53.9558 191.114 75.0718 213.772 84.8994C226.056 100.253 236.971 156.695 236.971 157.404C242.542 196.58 219.074 234.425 182.083 244.238C184.041 265.026 194.387 310.504 207.463 329.668C207.463 329.668 255.928 335.019 305.146 305.304C305.146 296.541 301.936 293.431 298.492 290.094C294.639 286.361 290.491 282.343 290.213 269.809C289.563 240.597 317.532 229.301 291.85 199.611C286.503 193.429 282.34 188.615 280.965 176.104C278.878 157.115 281.819 145.517 284.923 133.285C287.506 123.107 290.2 112.491 290.2 96.8141C290.2 59.5563 243.271 35.7518 219.129 43.5838C218.324 43.8448 217.452 43.3835 217.18 42.543C205.636 6.92674 185.688 2.1272e-05 155.237 0C98.9719 -3.93039e-05 38.2441 42.5705 38.2441 105.084C38.2441 157.404 19.0784 179.357 10.1222 199.611C-12.6526 251.115 10.1221 305.304 10.1221 305.304Z" fill="white"/>
</svg>
