<svg width="261" height="249" viewBox="0 0 261 249" fill="none" xmlns="http://www.w3.org/2000/svg">
<path d="M121.837 247.688C103 232.5 82.3771 208.5 82.0726 188.404C81.8822 175.83 82.7357 142.832 82.9999 136C84.1672 105.814 121.837 88.8195 121.837 88.8195C121.837 88.8195 119.837 101.5 96.5006 122C161.501 125.916 204.772 80.8993 204.772 80.8993C204.772 80.8993 222.83 142.307 226.972 166.404C231.114 190.5 222.5 207.307 220.276 215.404C218.861 220.558 254.01 224.669 260 218.5C263.418 214.98 247 192.5 245 169.5C242.734 143.444 255.501 125 251.201 105.814C244.966 78 234 58.5 208.18 56.543C196.637 20.9267 176.689 9.00002 146.238 9C89.9727 8.99996 25.278 51.6964 29.245 114.084C33.5 181 19.5 215 0 227C0 227 41 252 121.837 247.688Z" fill="white"/>
</svg>
