<svg width="32" height="40" viewBox="0 0 32 40" fill="none" xmlns="http://www.w3.org/2000/svg">
<path d="M24.7238 22.8833L26.6859 23.2709L24.7238 22.8833ZM12.7512 14.2897C15.1384 13.746 18.1794 13.9292 20.288 15.1545C21.2984 15.7416 22.0746 16.5514 22.5307 17.6451C22.9916 18.7499 23.1937 20.3092 22.7617 22.4956L26.6859 23.2709C27.2341 20.4958 27.055 18.1014 26.2225 16.1052C25.3852 14.0979 23.9557 12.6594 22.2976 11.6959C19.0692 9.82004 14.9216 9.69294 11.8629 10.3896L12.7512 14.2897ZM22.7617 22.4956C22.0447 26.1248 19.8399 27.9115 17.5855 28.6246C16.4223 28.9926 15.246 29.0708 14.2604 28.9425C13.2295 28.8083 12.6147 28.48 12.3768 28.2541L9.62323 31.1555C10.6923 32.1701 12.2287 32.7117 13.7439 32.909C15.3043 33.1122 17.0688 32.9835 18.792 32.4384C22.3104 31.3253 25.6605 28.4608 26.6859 23.2709L22.7617 22.4956Z" fill="#F9C9B6"/>
</svg>
