<svg width="16" height="16" viewBox="0 0 16 16" fill="none" xmlns="http://www.w3.org/2000/svg">
<path d="M8.72965 7.99849L13.1836 3.5453C13.3832 3.34569 13.3832 3.01532 13.1836 2.81572C12.9839 2.61612 12.6535 2.61612 12.4539 2.81572L7.99996 7.26891L3.54605 2.81572C3.34641 2.61612 3.01599 2.61612 2.81635 2.81572C2.61672 3.01532 2.61672 3.34569 2.81635 3.5453L7.27026 7.99849L2.81635 12.4517C2.61672 12.6513 2.61672 12.9817 2.81635 13.1813C2.91961 13.2845 3.0504 13.3327 3.1812 13.3327C3.31199 13.3327 3.44279 13.2845 3.54605 13.1813L7.99996 8.72807L12.4539 13.1813C12.5571 13.2845 12.6879 13.3327 12.8187 13.3327C12.9495 13.3327 13.0803 13.2845 13.1836 13.1813C13.3832 12.9817 13.3832 12.6513 13.1836 12.4517L8.72965 7.99849Z"/>
</svg>
