<svg width="21" height="22" viewBox="0 0 21 22" fill="none">
  <path d="M19.7903 12.5997L19.3663 12.3609C18.8618 12.0772 18.5603 11.5681 18.5603 11C18.5603 10.4319 18.8618 9.92279 19.3663 9.63914L19.7903 9.40029C20.9477 8.74814 21.3434 7.30871 20.6752 6.18043L19.8692 4.81957C19.2027 3.69364 17.7205 3.30707 16.5663 3.95686L16.1423 4.19493C15.6378 4.47936 15.0341 4.47936 14.5304 4.19493C14.0258 3.9105 13.7244 3.40214 13.7244 2.83407V2.35714C13.7244 1.05757 12.6395 0 11.3064 0H9.69441C8.3613 0 7.27644 1.05757 7.27644 2.35714V2.83486C7.27644 3.40293 6.975 3.91129 6.47045 4.19571C5.9659 4.47936 5.36302 4.48014 4.85847 4.19571L4.43452 3.95686C3.28034 3.30707 1.79812 3.69364 1.13076 4.81957L0.324769 6.18043C-0.343398 7.30871 0.0523439 8.74893 1.20975 9.40029L1.6345 9.63914C2.13905 9.92279 2.44049 10.4319 2.44049 11C2.44049 11.5681 2.13905 12.0772 1.6345 12.3609L1.21055 12.5997C0.0531498 13.2511 -0.342592 14.6913 0.325575 15.8196L1.13157 17.1804C1.79893 18.3064 3.28114 18.6929 4.43452 18.0431L4.85847 17.8051C5.36302 17.5199 5.9659 17.5214 6.47045 17.8051C6.975 18.0895 7.27644 18.5979 7.27644 19.1659V19.6429C7.27644 20.9424 8.3613 22 9.69441 22H11.3064C12.6395 22 13.7244 20.9424 13.7244 19.6429V19.1651C13.7244 18.5971 14.0258 18.0887 14.5304 17.8043C15.0341 17.5206 15.6378 17.5199 16.1423 17.8043L16.5663 18.0431C17.7205 18.6921 19.2027 18.3056 19.8692 17.1804L20.6752 15.8196C21.3434 14.6913 20.9477 13.2511 19.7903 12.5997ZM10.5004 14.9286C8.27829 14.9286 6.47045 13.1662 6.47045 11C6.47045 8.83379 8.27829 7.07143 10.5004 7.07143C12.7225 7.07143 14.5304 8.83379 14.5304 11C14.5304 13.1662 12.7225 14.9286 10.5004 14.9286Z" />
</svg>
