<svg width="160" height="188" viewBox="0 0 160 188" fill="none" xmlns="http://www.w3.org/2000/svg">
<path fill-rule="evenodd" clip-rule="evenodd" d="M0.0229998 54.097C0.0239998 49.681 3.087 44.26 6.877 41.98L73.134 2.12203C76.919 -0.154965 83.049 -0.154966 86.841 2.13003L153.121 42.064C156.907 44.344 159.974 49.767 159.973 54.202L159.945 133.805C159.944 138.228 156.876 143.67 153.097 145.959L86.697 186.164C82.916 188.454 76.794 188.453 73.007 186.154L6.84 145.969C3.06 143.674 -0.00199902 138.236 9.79194e-07 133.818L0.0229998 54.098V54.097ZM13.959 47.623L79.793 84.382L142.559 48.104L79.687 11.186L13.958 47.623H13.959ZM9.713 59.52C9.713 61.148 8.648 131.38 8.648 131.38C8.614 133.586 10.115 136.297 12.015 137.444L73.627 174.626L74.194 97.213C74.194 97.213 9.714 57.891 9.714 59.52H9.713ZM85.82 174.458L146.732 135.798C149.064 134.318 150.955 130.883 150.955 128.119V59.125L85.82 96.638V174.458Z" />
<path fill-rule="evenodd" clip-rule="evenodd" d="M29.8877 98.287C25.1057 101.049 18.7657 99.022 15.7277 93.761C12.6907 88.5 14.1057 81.996 18.8877 79.235C23.6707 76.473 30.0107 78.5 33.0477 83.761C36.0857 89.022 34.6707 95.526 29.8877 98.287ZM61.8877 119.287C57.1057 122.049 50.7657 120.022 47.7277 114.761C44.6907 109.5 46.1057 102.996 50.8877 100.235C55.6707 97.473 62.0107 99.5 65.0477 104.761C68.0857 110.022 66.6707 116.526 61.8877 119.287ZM29.8877 135.287C25.1057 138.049 18.7657 136.022 15.7277 130.761C12.6907 125.5 14.1057 118.996 18.8877 116.235C23.6707 113.473 30.0107 115.5 33.0477 120.761C36.0857 126.022 34.6707 132.526 29.8877 135.287ZM61.8877 156.287C57.1057 159.049 50.7657 157.022 47.7277 151.761C44.6907 146.5 46.1057 139.996 50.8877 137.235C55.6707 134.473 62.0107 136.5 65.0477 141.761C68.0857 147.022 66.6707 153.526 61.8877 156.287ZM140.126 78.235C135.343 75.473 129.004 77.5 125.966 82.761C122.929 88.022 124.343 94.526 129.126 97.287C133.909 100.049 140.249 98.022 143.286 92.761C146.324 87.5 144.909 80.996 140.126 78.235V78.235ZM123.888 107.235C119.106 104.473 112.766 106.5 109.728 111.761C106.691 117.022 108.106 123.526 112.888 126.287C117.671 129.049 124.011 127.022 127.048 121.761C130.086 116.5 128.671 109.996 123.888 107.235ZM106.888 135.235C102.106 132.473 95.7657 134.5 92.7277 139.761C89.6907 145.022 91.1057 151.526 95.8877 154.287C100.671 157.049 107.011 155.022 110.048 149.761C113.086 144.5 111.671 137.996 106.888 135.235ZM80.6277 35C74.2767 35 69.1277 39.925 69.1277 46C69.1277 52.075 74.2767 57 80.6277 57C86.9787 57 92.1277 52.075 92.1277 46C92.1277 39.925 86.9787 35 80.6277 35Z" />
</svg>
