<svg width="34" height="32" viewBox="0 0 34 32" fill="none" xmlns="http://www.w3.org/2000/svg">
<path d="M26.1902 32C25.7482 31.9996 25.3165 31.8673 24.9502 31.62L17.4902 26.62C17.4534 26.5946 17.4098 26.581 17.3652 26.581C17.3205 26.581 17.2769 26.5946 17.2402 26.62L9.78015 31.62C9.40555 31.8701 8.96371 32.0004 8.51333 31.9935C8.06294 31.9866 7.62531 31.8428 7.25855 31.5813C6.8918 31.3198 6.61326 30.9529 6.45994 30.5294C6.30662 30.1058 6.28577 29.6457 6.40015 29.21L8.85015 20.57C8.86174 20.5266 8.86033 20.4807 8.84611 20.438C8.8319 20.3954 8.80549 20.3578 8.77015 20.33L1.71015 14.78C1.33849 14.5031 1.0628 14.1169 0.921738 13.6754C0.780675 13.2339 0.781313 12.7594 0.923563 12.3183C1.06581 11.8772 1.34254 11.4917 1.71495 11.2158C2.08735 10.94 2.53676 10.7876 3.00015 10.78L12.0002 10.44C12.0444 10.4369 12.0868 10.4212 12.1223 10.3945C12.1578 10.3679 12.1848 10.3316 12.2002 10.29L15.3002 1.86C15.4564 1.43263 15.7402 1.06361 16.1132 0.802891C16.4861 0.54217 16.9301 0.402344 17.3852 0.402344C17.8402 0.402344 18.2842 0.54217 18.6572 0.802891C19.0301 1.06361 19.3139 1.43263 19.4702 1.86L22.5702 10.29C22.5855 10.3316 22.6125 10.3679 22.648 10.3945C22.6835 10.4212 22.7259 10.4369 22.7702 10.44L31.7702 10.78C32.2335 10.7876 32.683 10.94 33.0554 11.2158C33.4278 11.4917 33.7045 11.8772 33.8467 12.3183C33.989 12.7594 33.9896 13.2339 33.8486 13.6754C33.7075 14.1169 33.4318 14.5031 33.0602 14.78L26.0002 20.33C25.9637 20.3569 25.9365 20.3944 25.9222 20.4373C25.9079 20.4803 25.9072 20.5266 25.9202 20.57L28.3702 29.21C28.4561 29.5414 28.4647 29.8882 28.3951 30.2234C28.3255 30.5586 28.1796 30.8733 27.9688 31.1431C27.758 31.4129 27.4879 31.6305 27.1795 31.7791C26.871 31.9277 26.5325 32.0033 26.1902 32V32ZM17.3702 24.58C17.813 24.5935 18.2415 24.7399 18.6002 25L26.0602 30C26.098 30.0287 26.144 30.0445 26.1915 30.0448C26.239 30.0452 26.2853 30.0302 26.3236 30.0021C26.3619 29.974 26.39 29.9342 26.4038 29.8888C26.4176 29.8433 26.4163 29.7946 26.4002 29.75L23.9502 21.11C23.8296 20.6862 23.8385 20.236 23.9757 19.8172C24.1129 19.3985 24.3722 19.0303 24.7202 18.76L31.7802 13.21C31.8187 13.1829 31.8475 13.1443 31.8624 13.0996C31.8773 13.055 31.8775 13.0067 31.8629 12.962C31.8484 12.9172 31.8199 12.8783 31.7816 12.8509C31.7433 12.8236 31.6972 12.8092 31.6502 12.81L22.6502 12.47C22.2095 12.4528 21.7839 12.3048 21.4277 12.0447C21.0715 11.7847 20.8008 11.4245 20.6502 11.01L17.5502 2.58C17.5362 2.53524 17.5083 2.49611 17.4705 2.46833C17.4327 2.44055 17.387 2.42557 17.3402 2.42557C17.2933 2.42557 17.2476 2.44055 17.2098 2.46833C17.172 2.49611 17.1441 2.53524 17.1302 2.58L14.0602 11C13.9095 11.4145 13.6388 11.7747 13.2826 12.0347C12.9264 12.2948 12.5008 12.4428 12.0602 12.46L3.06015 12.8C3.0131 12.7992 2.96704 12.8136 2.92874 12.8409C2.89044 12.8683 2.86192 12.9072 2.84738 12.952C2.83283 12.9967 2.83302 13.045 2.84792 13.0896C2.86282 13.1343 2.89164 13.1729 2.93015 13.2L10.0002 18.76C10.3471 19.0312 10.6056 19.3994 10.7427 19.8179C10.8798 20.2363 10.8893 20.6861 10.7702 21.11L8.33015 29.75C8.31559 29.7933 8.31552 29.8401 8.32996 29.8834C8.34439 29.9267 8.37255 29.9641 8.41015 29.99C8.44638 30.021 8.49248 30.038 8.54015 30.038C8.58782 30.038 8.63393 30.021 8.67015 29.99L16.1302 24.99C16.4947 24.7482 16.9227 24.6194 17.3602 24.62L17.3702 24.58Z"/>
</svg>
