<svg width="34" height="33" viewBox="0 0 34 33" fill="none" xmlns="http://www.w3.org/2000/svg">
<path d="M32.9998 14.7803C33.3715 14.5034 33.6472 14.1171 33.7883 13.6757C33.9293 13.2342 33.9287 12.7597 33.7864 12.3186C33.6442 11.8775 33.3674 11.492 32.995 11.2161C32.6226 10.9402 32.1732 10.7878 31.7098 10.7803L22.7098 10.4403C22.6656 10.4372 22.6232 10.4214 22.5877 10.3948C22.5522 10.3682 22.5252 10.3319 22.5098 10.2903L19.3998 1.89027C19.2436 1.46291 18.9598 1.09389 18.5868 0.833165C18.2139 0.572444 17.7699 0.432617 17.3148 0.432617C16.8598 0.432617 16.4158 0.572444 16.0428 0.833165C15.6699 1.09389 15.3861 1.46291 15.2298 1.89027L12.1298 10.3203C12.1145 10.3619 12.0875 10.3982 12.052 10.4248C12.0165 10.4514 11.9741 10.4672 11.9298 10.4703L2.92984 10.8103C2.46645 10.8178 2.01704 10.9702 1.64463 11.2461C1.27223 11.522 0.995501 11.9075 0.853251 12.3486C0.711001 12.7897 0.710362 13.2642 0.851426 13.7057C0.992489 14.1471 1.26818 14.5334 1.63984 14.8103L8.69984 20.3603C8.73517 20.3881 8.76158 20.4256 8.7758 20.4683C8.79002 20.5109 8.79142 20.5568 8.77984 20.6003L6.34984 29.2103C6.22392 29.6487 6.23612 30.1153 6.38478 30.5466C6.53344 30.9778 6.81135 31.3528 7.18069 31.6205C7.55003 31.8883 7.99288 32.0357 8.449 32.0428C8.90511 32.0499 9.35233 31.9164 9.72984 31.6603L17.1898 26.6603C17.2266 26.6349 17.2702 26.6213 17.3148 26.6213C17.3595 26.6213 17.4031 26.6349 17.4398 26.6603L24.8998 31.6603C25.2722 31.9251 25.7179 32.0674 26.1748 32.0674C26.6318 32.0674 27.0774 31.9251 27.4498 31.6603C27.8193 31.3951 28.0975 31.0219 28.2461 30.5921C28.3947 30.1623 28.4065 29.697 28.2798 29.2603L25.8298 20.6203C25.8169 20.5769 25.8176 20.5306 25.8319 20.4876C25.8462 20.4447 25.8734 20.4072 25.9098 20.3803L32.9998 14.7803Z"/>
</svg>
